# xmcd
#
# Track frame offsets:
#	150
#	16238
#	28392
#	42268
#	56087
#	71334
#	86270
#	99131
#	113321
#	126096
#	136720
#	155029
#	169388
#	180241
#
# Disc length: 2668 seconds
#
# Revision: 1
# Processed by: cddbd v1.5.2PL0 Copyright (c) Steve Scherf et al.
# Submitted via: audiograbber 1.83.01
#
DISCID=a70a6a0e
DTITLE=Daniel O'Donnell - Yesterday's Memories
DYEAR=2002
DGENRE=Country
TTITLE0=Sing Me An Old Fashioned Song
TTITLE1=Walk Through This World with Me
TTITLE2=Help Me Make It Through the Night
TTITLE3=Tonight Will Never Happen Again
TTITLE4=Coat Of Many Colours
TTITLE5=Tennessee Waltz
TTITLE6=Blackboard Of My Heart
TTITLE7=Even If It's Only For A Minute
TTITLE8=I Can't Help It (If I'm Still In Love With You)
TTITLE9=Then The World Will Know
TTITLE10=My Dreams Just Came True
TTITLE11=The Way That You Are
TTITLE12=When Two Worlds Collide
TTITLE13=Yesterday's Memories
EXTD=
EXTT0=
EXTT1=
EXTT2=
EXTT3=
EXTT4=
EXTT5=
EXTT6=
EXTT7=
EXTT8=
EXTT9=
EXTT10=
EXTT11=
EXTT12=
EXTT13=
PLAYORDER=
